<svg width="48" height="48" fill="none" xmlns="http://www.w3.org/2000/svg"><path opacity=".917" fill-rule="evenodd" clip-rule="evenodd" d="M11.766.328c6.812-.016 13.625 0 20.437.047a.66.66 0 01.422.234c.124 5.618.187 11.243.188 16.875 3.582 2.178 5.441 5.381 5.578 9.61a11.606 11.606 0 01-1.782 6 876.976 876.976 0 0010.735 10.828c.768 1.172.659 2.25-.328 3.234-1.032.573-2 .48-2.907-.281a1715.19 1715.19 0 00-10.687-10.64 6.06 6.06 0 01-.61.374l-.093 7.032a.44.44 0 01-.328.328c-10.657.062-21.313.062-31.97 0a.888.888 0 01-.233-.14 1376.14 1376.14 0 01-.095-32.064C3.982 7.924 7.873 4.11 11.766.328zm.937 1.313h18.75c.031 5.063 0 10.125-.094 15.187-4.89-1.61-9.062-.516-12.515 3.281-2.492 3.346-3.054 7.003-1.688 10.97 1.249 3.06 3.42 5.17 6.516 6.327 2.598.853 5.176.806 7.734-.14.047 1.812.063 3.624.047 5.437H1.36v-30c3.688.016 7.376 0 11.063-.047a.653.653 0 00.234-.328c.047-3.562.063-7.125.047-10.687zm-1.406.937c.093 2.953.125 5.922.094 8.906-3.032.016-6.063 0-9.094-.046 3.019-2.941 6.019-5.894 9-8.86zm15 14.813c4.14-.22 7.312 1.406 9.515 4.875 1.866 3.664 1.647 7.195-.656 10.593-3.105 3.64-6.933 4.687-11.484 3.141-3.764-1.783-5.764-4.768-6-8.953.302-4.565 2.583-7.643 6.844-9.235a36.104 36.104 0 011.78-.421zm9.375 16.875c.743.586 1.43 1.242 2.062 1.968-.373.42-.764.827-1.172 1.22l-2.015-2.017c.394-.378.769-.768 1.125-1.171zm3 2.906a894.944 894.944 0 017.734 7.687c.314.748.08 1.217-.703 1.407a1.626 1.626 0 01-.656-.328l-7.453-7.454c-.063-.062-.063-.125 0-.187.378-.363.738-.738 1.078-1.125z" fill="url(#paint0_linear_21_295)"/><defs><linearGradient id="paint0_linear_21_295" x1="23.945" y1=".322" x2="23.945" y2="47.526" gradientUnits="userSpaceOnUse"><stop stop-color="#55B4D4"/><stop offset="1" stop-color="#5758E0"/></linearGradient></defs></svg>