<svg width="48" height="48" fill="none" xmlns="http://www.w3.org/2000/svg"><g clip-path="url(#clip0_29_607)" fill-rule="evenodd" clip-rule="evenodd"><path opacity=".982" d="M2.578-.047h42.75c1.344.406 2.219 1.281 2.625 2.625v42.75c-.406 1.344-1.281 2.219-2.625 2.625H2.578C1.234 47.547.36 46.672-.047 45.328V2.578C.36 1.234 1.234.36 2.578-.047zm.844 1.5c13.687-.016 27.375 0 41.062.047.903.06 1.513.512 1.828 1.36a62.71 62.71 0 01.141 5.718h-45c-.04-1.91.007-3.816.14-5.719.332-.848.94-1.316 1.829-1.406zm-1.969 8.719h45a6229.2 6229.2 0 01-.047 34.312c-.14 1.141-.781 1.782-1.922 1.922-13.687.063-27.375.063-41.062 0-1.14-.14-1.781-.781-1.922-1.922a6279.217 6279.217 0 01-.047-34.312zm35.531 7.969c1.56-.05 2.263.7 2.11 2.25a28.413 28.413 0 01-1.969 3.28c-.99-.533-1.975-1.08-2.953-1.64a174.52 174.52 0 011.922-3.328c.266-.25.563-.437.89-.562zm-3.656 5.25l2.719 1.547a.897.897 0 01.281.28l-5.86 10.173a46.266 46.266 0 01-2.952-1.782 835.371 835.371 0 005.812-10.218zm-6.281 11.906a18.4 18.4 0 012.156 1.266L27 38.016a28.676 28.676 0 01.047-2.72z" fill="url(#paint0_linear_29_607)"/><path opacity=".924" d="M5.39 4.266c1.563-.016 3.126 0 4.688.046.5.47.5.938 0 1.407l-.281.093c-1.375.063-2.75.063-4.125 0-.53-.17-.734-.53-.61-1.078.094-.17.203-.327.329-.468z" fill="url(#paint1_linear_29_607)"/><path opacity=".926" d="M12.797 4.266c1.656-.016 3.313 0 4.969.046.46.423.492.876.093 1.36a2.701 2.701 0 01-.375.14 51.796 51.796 0 01-4.406 0c-.606-.164-.809-.555-.61-1.171a.656.656 0 01.329-.375z" fill="url(#paint2_linear_29_607)"/><path opacity=".937" d="M20.484 4.266c6.844-.016 13.688 0 20.532.046.472.283.581.674.328 1.172a.72.72 0 01-.516.329c-6.687.062-13.375.062-20.062 0-.606-.165-.81-.556-.61-1.172.13-.113.239-.238.328-.375z" fill="url(#paint3_linear_29_607)"/><path opacity=".992" d="M7.547 16.172c6.281-.016 12.562 0 18.844.047.282.143.407.377.375.703.032.325-.093.56-.375.703-6.282.063-12.563.063-18.844 0-.283-.143-.408-.378-.375-.703-.02-.334.104-.584.375-.75z" fill="url(#paint4_linear_29_607)"/><path opacity=".934" d="M36.703 16.547c2.872-.113 4.2 1.262 3.984 4.125a21.296 21.296 0 01-1.5 2.906L31.5 36.891l-.328.328a206.98 206.98 0 01-4.969 3.187c-6.156.063-12.312.063-18.469 0a.605.605 0 01-.515-.422c-.136-.441-.026-.8.328-1.078 5.906-.047 11.812-.062 17.719-.047.089-1.72.198-3.438.328-5.156a1927.616 1927.616 0 019-15.656 3.583 3.583 0 012.11-1.5zm.281 1.594a2.716 2.716 0 00-.89.562 175.057 175.057 0 00-1.922 3.328c.978.56 1.963 1.107 2.953 1.64a28.413 28.413 0 001.969-3.28c.153-1.55-.55-2.3-2.11-2.25zm-3.656 5.25a834.057 834.057 0 01-5.812 10.218 46.266 46.266 0 002.953 1.782l5.86-10.172a.897.897 0 00-.282-.282l-2.719-1.546zm-6.281 11.906A28.675 28.675 0 0027 38.016l2.203-1.453c-.69-.47-1.41-.893-2.156-1.266z" fill="url(#paint5_linear_29_607)"/><path opacity=".937" d="M7.734 23.672c6.157-.016 12.313 0 18.47.047.404.105.592.37.562.797a.711.711 0 01-.375.703c-6.282.062-12.563.062-18.844 0-.402-.354-.48-.776-.234-1.266.132-.12.272-.214.421-.281z" fill="url(#paint6_linear_29_607)"/><path opacity=".935" d="M7.64 31.266c5.595-.016 11.188 0 16.782.047.479.315.588.737.328 1.265a.655.655 0 01-.328.234c-5.594.063-11.188.063-16.781 0-.35-.13-.507-.38-.47-.75-.017-.371.14-.637.47-.796z" fill="url(#paint7_linear_29_607)"/></g><defs><linearGradient id="paint0_linear_29_607" x1="23.953" y1="-.047" x2="23.953" y2="47.953" gradientUnits="userSpaceOnUse"><stop stop-color="#55B4D4"/><stop offset="1" stop-color="#5758E0"/></linearGradient><linearGradient id="paint1_linear_29_607" x1="7.74" y1="4.26" x2="7.74" y2="5.859" gradientUnits="userSpaceOnUse"><stop stop-color="#55B4D4"/><stop offset="1" stop-color="#5758E0"/></linearGradient><linearGradient id="paint2_linear_29_607" x1="15.265" y1="4.26" x2="15.265" y2="5.859" gradientUnits="userSpaceOnUse"><stop stop-color="#55B4D4"/><stop offset="1" stop-color="#5758E0"/></linearGradient><linearGradient id="paint3_linear_29_607" x1="30.779" y1="4.26" x2="30.779" y2="5.859" gradientUnits="userSpaceOnUse"><stop stop-color="#55B4D4"/><stop offset="1" stop-color="#5758E0"/></linearGradient><linearGradient id="paint4_linear_29_607" x1="16.969" y1="16.166" x2="16.969" y2="17.672" gradientUnits="userSpaceOnUse"><stop stop-color="#55B4D4"/><stop offset="1" stop-color="#5758E0"/></linearGradient><linearGradient id="paint5_linear_29_607" x1="23.936" y1="16.541" x2="23.936" y2="40.453" gradientUnits="userSpaceOnUse"><stop stop-color="#55B4D4"/><stop offset="1" stop-color="#5758E0"/></linearGradient><linearGradient id="paint6_linear_29_607" x1="16.971" y1="23.666" x2="16.971" y2="25.266" gradientUnits="userSpaceOnUse"><stop stop-color="#55B4D4"/><stop offset="1" stop-color="#5758E0"/></linearGradient><linearGradient id="paint7_linear_29_607" x1="16.027" y1="31.26" x2="16.027" y2="32.859" gradientUnits="userSpaceOnUse"><stop stop-color="#55B4D4"/><stop offset="1" stop-color="#5758E0"/></linearGradient><clipPath id="clip0_29_607"><path fill="#fff" d="M0 0h48v48H0z"/></clipPath></defs></svg>