<svg width="161" height="35" fill="none" xmlns="http://www.w3.org/2000/svg"><path d="M11.158 17.898h4.704l2.365 3.042 2.327 2.71 4.385 5.498h-5.165l-3.017-3.708-1.547-2.199-4.052-5.343zm14.177-3.989c0 2.855-.541 5.284-1.623 7.287-1.074 2.003-2.54 3.533-4.398 4.59-1.85 1.048-3.93 1.572-6.239 1.572-2.326 0-4.414-.529-6.264-1.585-1.85-1.057-3.311-2.587-4.385-4.59C1.352 19.18.816 16.756.816 13.91c0-2.855.536-5.284 1.61-7.287s2.536-3.528 4.385-4.577C8.661.99 10.75.46 13.075.46c2.31 0 4.39.529 6.239 1.585 1.858 1.049 3.324 2.574 4.398 4.577 1.082 2.003 1.623 4.432 1.623 7.287zm-5.612 0c0-1.85-.277-3.409-.831-4.679-.545-1.27-1.317-2.233-2.314-2.89-.997-.655-2.165-.983-3.503-.983s-2.505.328-3.503.984c-.997.656-1.772 1.62-2.326 2.89-.546 1.269-.818 2.829-.818 4.678 0 1.85.272 3.41.818 4.68.554 1.269 1.33 2.232 2.326 2.888.998.657 2.165.985 3.503.985s2.506-.328 3.503-.985c.997-.656 1.769-1.619 2.314-2.889.554-1.27.831-2.83.831-4.679zM32.472 27H26.54L35.578.818h7.134L51.738 27h-5.932L39.248 6.801h-.205L32.472 27zm-.37-10.291h14.01v4.32h-14.01v-4.32zm36.392-8.361c-.102-1.031-.54-1.832-1.316-2.403s-1.829-.857-3.158-.857c-.903 0-1.666.128-2.288.384-.623.247-1.1.592-1.432 1.035a2.493 2.493 0 00-.486 1.509c-.017.468.08.877.294 1.227.222.35.524.652.908.908a6.9 6.9 0 001.33.652c.502.178 1.039.332 1.61.46l2.352.562c1.142.256 2.19.597 3.145 1.023.955.426 1.781.95 2.48 1.572a6.534 6.534 0 011.624 2.2c.392.843.592 1.81.6 2.901-.008 1.603-.417 2.992-1.227 4.168-.8 1.168-1.96 2.075-3.477 2.723-1.508.64-3.328.959-5.459.959-2.113 0-3.954-.324-5.522-.972-1.56-.648-2.779-1.606-3.657-2.876-.869-1.279-1.325-2.86-1.368-4.743h5.357c.06.878.311 1.61.754 2.199.452.58 1.053 1.018 1.803 1.317.758.29 1.615.434 2.57.434.937 0 1.75-.136 2.441-.409.699-.273 1.24-.652 1.624-1.138a2.627 2.627 0 00.575-1.674c0-.588-.175-1.083-.524-1.483-.341-.401-.844-.742-1.509-1.023-.656-.281-1.461-.537-2.416-.767l-2.85-.716c-2.208-.537-3.951-1.377-5.23-2.519-1.278-1.142-1.913-2.68-1.904-4.615-.009-1.585.413-2.97 1.265-4.154.861-1.185 2.042-2.11 3.542-2.775 1.5-.664 3.204-.997 5.113-.997 1.943 0 3.64.333 5.088.997 1.458.665 2.591 1.59 3.4 2.775.81 1.184 1.228 2.556 1.254 4.116h-5.306zm9.285 26.016v-27h5.37v3.298h.242c.239-.529.584-1.065 1.035-1.61.46-.555 1.057-1.015 1.79-1.382.742-.375 1.662-.562 2.762-.562a7.38 7.38 0 013.963 1.125c1.21.741 2.177 1.862 2.902 3.362.724 1.492 1.086 3.362 1.086 5.612 0 2.19-.353 4.04-1.06 5.549-.7 1.5-1.654 2.637-2.864 3.413-1.202.767-2.549 1.15-4.04 1.15-1.057 0-1.956-.174-2.698-.523-.733-.35-1.333-.789-1.802-1.317a6.685 6.685 0 01-1.074-1.624h-.166v10.509h-5.446zm5.33-17.182c0 1.167.163 2.186.487 3.055.323.87.792 1.547 1.406 2.033.613.477 1.36.716 2.237.716.886 0 1.636-.243 2.25-.729.614-.494 1.078-1.176 1.393-2.045.324-.878.486-1.888.486-3.03 0-1.134-.157-2.13-.473-2.992-.315-.86-.78-1.534-1.393-2.02-.614-.485-1.368-.728-2.263-.728-.886 0-1.636.234-2.25.703-.605.469-1.07 1.133-1.394 1.994-.323.861-.485 1.875-.485 3.043zm23.05 10.189c-1.252 0-2.369-.218-3.349-.652-.98-.443-1.756-1.095-2.327-1.956-.562-.87-.843-1.952-.843-3.247 0-1.091.2-2.007.6-2.749a4.865 4.865 0 011.637-1.79 7.932 7.932 0 012.352-1.023 17.91 17.91 0 012.787-.485c1.142-.12 2.062-.23 2.761-.333.699-.11 1.206-.272 1.522-.485.315-.213.473-.529.473-.947v-.076c0-.81-.256-1.436-.767-1.88-.503-.443-1.219-.664-2.148-.664-.98 0-1.76.217-2.34.652-.579.426-.963.963-1.15 1.61l-5.037-.409c.256-1.193.758-2.224 1.508-3.093.75-.878 1.718-1.551 2.902-2.02 1.194-.477 2.574-.716 4.142-.716 1.091 0 2.135.128 3.133.383 1.005.256 1.896.652 2.671 1.19a5.773 5.773 0 011.854 2.07c.452.836.678 1.837.678 3.005V27h-5.165v-2.723h-.153a5.562 5.562 0 01-1.266 1.624 5.86 5.86 0 01-1.905 1.086c-.741.256-1.598.384-2.57.384zm1.56-3.759c.801 0 1.509-.157 2.122-.473a3.762 3.762 0 001.445-1.304 3.365 3.365 0 00.524-1.854v-2.083c-.17.11-.405.213-.703.306-.29.086-.618.167-.984.243-.367.069-.733.133-1.1.192a312.4 312.4 0 00-.997.14 6.738 6.738 0 00-1.675.448c-.477.205-.848.482-1.112.831-.264.341-.396.767-.396 1.279 0 .741.268 1.308.805 1.7.546.384 1.236.575 2.071.575zm22.596 3.772c-2.011 0-3.741-.427-5.19-1.279-1.441-.86-2.549-2.054-3.324-3.58-.767-1.525-1.151-3.28-1.151-5.266 0-2.012.388-3.776 1.164-5.293.784-1.526 1.896-2.715 3.336-3.567 1.441-.86 3.154-1.291 5.139-1.291 1.713 0 3.213.311 4.5.933 1.287.622 2.306 1.496 3.056 2.62.75 1.126 1.163 2.447 1.24 3.964h-5.139c-.145-.98-.529-1.768-1.151-2.365-.614-.605-1.419-.908-2.416-.908-.844 0-1.581.23-2.212.69-.622.452-1.108 1.113-1.457 1.982-.35.87-.524 1.922-.524 3.158 0 1.253.17 2.318.511 3.196.35.878.84 1.547 1.47 2.007.631.46 1.368.69 2.212.69.622 0 1.18-.128 1.675-.383a3.242 3.242 0 001.24-1.113c.332-.494.549-1.086.652-1.776h5.139c-.085 1.5-.494 2.82-1.227 3.963-.725 1.133-1.726 2.02-3.005 2.659-1.278.639-2.791.959-4.538.959zm21.206 0c-2.02 0-3.759-.41-5.216-1.228-1.449-.826-2.566-1.994-3.35-3.503-.784-1.517-1.176-3.31-1.176-5.382 0-2.02.392-3.792 1.176-5.318.784-1.525 1.888-2.714 3.311-3.567 1.432-.852 3.111-1.278 5.037-1.278 1.296 0 2.502.209 3.618.626a8.035 8.035 0 012.941 1.854c.843.827 1.5 1.867 1.968 3.12.469 1.244.703 2.701.703 4.371v1.496h-16.581V15.2h11.455c0-.784-.17-1.478-.511-2.083a3.665 3.665 0 00-1.419-1.42c-.597-.349-1.292-.524-2.084-.524-.827 0-1.56.192-2.199.576a4.032 4.032 0 00-1.483 1.52 4.301 4.301 0 00-.55 2.11v3.21c0 .97.179 1.81.537 2.518a3.932 3.932 0 001.547 1.636c.665.383 1.453.575 2.365.575a5.15 5.15 0 001.662-.256 3.44 3.44 0 001.291-.767 3.33 3.33 0 00.818-1.252l5.037.332a6.877 6.877 0 01-1.572 3.17c-.784.895-1.798 1.594-3.043 2.097-1.236.494-2.663.742-4.282.742z" fill="#fff"/></svg>