<svg width="124" height="30" fill="none" xmlns="http://www.w3.org/2000/svg"><path d="M11.158 17.898h4.704l2.365 3.042 2.327 2.71 4.385 5.498h-5.165l-3.017-3.708-1.547-2.199-4.052-5.343zm14.177-3.989c0 2.855-.541 5.284-1.623 7.287-1.074 2.003-2.54 3.533-4.398 4.59-1.85 1.048-3.93 1.572-6.239 1.572-2.326 0-4.414-.529-6.264-1.585-1.85-1.057-3.311-2.587-4.385-4.59C1.352 19.18.816 16.756.816 13.91c0-2.855.536-5.284 1.61-7.287s2.536-3.528 4.385-4.577C8.661.99 10.75.46 13.075.46c2.31 0 4.39.529 6.239 1.585 1.858 1.049 3.324 2.574 4.398 4.577 1.082 2.003 1.623 4.432 1.623 7.287zm-5.612 0c0-1.85-.277-3.409-.831-4.679-.545-1.27-1.317-2.233-2.314-2.89-.997-.655-2.165-.983-3.503-.983s-2.505.328-3.503.984c-.997.656-1.772 1.62-2.326 2.89-.546 1.269-.818 2.829-.818 4.678 0 1.85.272 3.41.818 4.68.554 1.269 1.33 2.232 2.326 2.888.998.657 2.165.985 3.503.985s2.506-.328 3.503-.985c.997-.656 1.769-1.619 2.314-2.889.554-1.27.831-2.83.831-4.679zM32.472 27H26.54L35.578.818h7.134L51.738 27h-5.932L39.248 6.801h-.205L32.472 27zm-.37-10.291h14.01v4.32h-14.01v-4.32zM54.888 27V.818h5.535v10.803h11.238V.818h5.522V27h-5.522V16.185H60.424V27H54.89zm39.35-8.36V7.363h5.445V27h-5.228v-3.567h-.205a5.798 5.798 0 01-2.212 2.774c-1.022.7-2.27 1.049-3.745 1.049-1.313 0-2.468-.299-3.465-.895-.997-.597-1.777-1.445-2.34-2.544-.553-1.1-.835-2.416-.843-3.95V7.363h5.446v11.53c.008 1.16.32 2.076.933 2.75.614.673 1.436 1.01 2.468 1.01.656 0 1.27-.15 1.84-.448a3.514 3.514 0 001.381-1.355c.358-.597.533-1.334.524-2.212zm9.904 8.36V.818h5.446v9.844h.166a7.238 7.238 0 011.035-1.61c.461-.555 1.057-1.015 1.79-1.382.742-.375 1.662-.562 2.762-.562 1.431 0 2.752.375 3.963 1.125 1.21.741 2.177 1.862 2.902 3.362.724 1.492 1.086 3.362 1.086 5.612 0 2.19-.353 4.04-1.061 5.549-.699 1.5-1.653 2.637-2.863 3.413-1.202.767-2.549 1.15-4.04 1.15-1.057 0-1.956-.174-2.698-.523-.733-.35-1.333-.789-1.802-1.317a6.674 6.674 0 01-1.074-1.624h-.243V27h-5.369zm5.331-9.818c0 1.167.162 2.186.486 3.055.323.87.792 1.547 1.406 2.033.613.477 1.359.716 2.237.716.886 0 1.636-.243 2.25-.729.614-.494 1.078-1.176 1.393-2.045.324-.878.486-1.888.486-3.03 0-1.134-.157-2.13-.473-2.992-.315-.86-.78-1.534-1.393-2.02-.614-.485-1.368-.728-2.263-.728-.886 0-1.636.234-2.25.703-.605.469-1.07 1.133-1.393 1.994-.324.861-.486 1.875-.486 3.043z" fill="#fff"/></svg>