<svg width="48" height="48" fill="none" xmlns="http://www.w3.org/2000/svg"><path opacity=".938" fill-rule="evenodd" clip-rule="evenodd" d="M23.39.703a4.79 4.79 0 011.407.14 1505.314 1505.314 0 0118.14 4.923c.402.837.137 1.337-.796 1.5-.11 2.718-.125 5.437-.047 8.156.617.347 1.226.707 1.828 1.078.059.07.105.148.14.234a137.93 137.93 0 010 7.22c-.276.353-.636.462-1.078.327a52.094 52.094 0 01-1.734-1.265c-.572.353-1.119.743-1.64 1.172-.426.215-.817.169-1.172-.141l-.094-.281a128.162 128.162 0 010-6.938c.073-.167.183-.308.328-.422.575-.31 1.137-.637 1.687-.984.094-2.562.125-5.124.094-7.688l-3.187.75c.015 3.282 0 6.563-.047 9.844a.654.654 0 01-.235.328 469.443 469.443 0 01-8.156 1.594 36.516 36.516 0 01-4.922.61 33.192 33.192 0 01-4.36-.516c-2.909-.55-5.815-1.113-8.718-1.688a.654.654 0 01-.234-.328c-.047-3.28-.063-6.562-.047-9.844-1.854-.44-3.697-.924-5.531-1.453-.446-.408-.477-.845-.094-1.312 6.17-1.66 12.326-3.332 18.469-5.016zm.282 1.594A562.957 562.957 0 0139.14 6.375a1816.596 1816.596 0 00-15.235 4.078A1843.6 1843.6 0 008.671 6.375l15-4.078zM12.14 8.953c3.915 1.053 7.837 2.084 11.765 3.094 3.9-.995 7.791-2.026 11.672-3.094a92.871 92.871 0 010 8.344c-2.495.502-4.995.986-7.5 1.453-2.396.557-4.802.62-7.219.188a513.286 513.286 0 01-8.53-1.594 94.577 94.577 0 01-.188-8.39zm28.968 7.875a6.44 6.44 0 011.313.656 34.57 34.57 0 01.047 4.407 2.914 2.914 0 00-1.266-.75c-.453.172-.86.422-1.219.75a33.117 33.117 0 01-.047-4.313c.405-.24.796-.49 1.172-.75z" fill="url(#paint0_linear_25_473)"/><path opacity=".932" fill-rule="evenodd" clip-rule="evenodd" d="M4.266 26.297c3.594-.016 7.187 0 10.78.047a.847.847 0 01.517.61c.116 3.657 1.82 6.267 5.109 7.827 3.703 1.32 6.906.555 9.61-2.297 1.318-1.705 2.005-3.642 2.062-5.812.114-.145.254-.255.422-.328 3.593-.063 7.187-.063 10.78 0a.704.704 0 01.423.422c.062 1.125.062 2.25 0 3.375a1.32 1.32 0 01-.61.422 26.9 26.9 0 00-2.625 1.078 19.631 19.631 0 01-1.78 4.218 49.17 49.17 0 011.171 2.625c.199.363.167.707-.094 1.032l-3.703 3.703a.975.975 0 01-.844.187 56.648 56.648 0 01-2.812-1.265 18.743 18.743 0 01-4.313 1.828 73.286 73.286 0 00-1.078 2.765 1.082 1.082 0 01-.328.422 99.045 99.045 0 01-6.094 0 1.08 1.08 0 01-.328-.422c-.341-.93-.7-1.852-1.078-2.765a18.743 18.743 0 01-4.312-1.828c-.927.447-1.864.87-2.813 1.265a.975.975 0 01-.844-.187l-3.703-3.703a.898.898 0 01-.187-.75l1.265-2.907a19.627 19.627 0 01-1.78-4.218 26.907 26.907 0 00-2.626-1.078 1.32 1.32 0 01-.61-.422 30.398 30.398 0 010-3.375c.097-.205.237-.362.423-.47zM5.39 27.89h8.625c.466 4.043 2.56 6.87 6.28 8.484 4.672 1.495 8.562.354 11.673-3.422a9.762 9.762 0 001.828-5.062h8.625c.03.442 0 .879-.094 1.312-.84.338-1.684.666-2.531.985a1.08 1.08 0 00-.422.328 19.234 19.234 0 01-2.063 4.968 1.172 1.172 0 000 .657l1.172 2.578-2.953 2.953a24.294 24.294 0 00-2.953-1.219c-.819.363-1.631.753-2.437 1.172a36.94 36.94 0 01-2.813.938 1.082 1.082 0 00-.328.421 47.312 47.312 0 00-.984 2.72c-1.376.015-2.75 0-4.125-.048a59.591 59.591 0 01-.985-2.484 1.32 1.32 0 00-.422-.61 19.23 19.23 0 01-4.968-2.062 1.33 1.33 0 00-.844.094c-.793.373-1.59.732-2.39 1.078l-2.954-2.953c.48-.94.886-1.909 1.219-2.907a155.494 155.494 0 01-1.453-3.234 16.158 16.158 0 01-.563-1.875 1.036 1.036 0 00-.515-.515 123.41 123.41 0 01-2.532-.985 4.675 4.675 0 01-.093-1.312zm13.5 0h10.03c-.39 2.001-1.547 3.36-3.468 4.078-3.052.638-5.192-.471-6.422-3.328a3.188 3.188 0 01-.14-.75z" fill="url(#paint1_linear_25_473)"/><path opacity=".932" fill-rule="evenodd" clip-rule="evenodd" d="M17.766 26.297c4.094-.016 8.187 0 12.28.047.24.064.413.205.517.422-.052 3.867-1.974 6.195-5.766 6.984-3.176.264-5.505-1.002-6.985-3.797a6.278 6.278 0 01-.562-3.187c.132-.21.304-.367.516-.47zm1.125 1.594c.016.254.063.504.14.75 1.23 2.857 3.37 3.966 6.422 3.328 1.921-.717 3.077-2.077 3.469-4.078H18.89z" fill="url(#paint2_linear_25_473)"/><defs><linearGradient id="paint0_linear_25_473" x1="24.383" y1=".697" x2="24.383" y2="24.337" gradientUnits="userSpaceOnUse"><stop stop-color="#55B4D4"/><stop offset="1" stop-color="#5758E0"/></linearGradient><linearGradient id="paint1_linear_25_473" x1="23.906" y1="26.291" x2="23.906" y2="47.203" gradientUnits="userSpaceOnUse"><stop stop-color="#55B4D4"/><stop offset="1" stop-color="#5758E0"/></linearGradient><linearGradient id="paint2_linear_25_473" x1="23.895" y1="26.291" x2="23.895" y2="33.784" gradientUnits="userSpaceOnUse"><stop stop-color="#55B4D4"/><stop offset="1" stop-color="#5758E0"/></linearGradient></defs></svg>