<svg width="32" height="32" fill="none" xmlns="http://www.w3.org/2000/svg"><path opacity=".964" fill-rule="evenodd" clip-rule="evenodd" d="M30.031 14.656c.294 5.318-1.665 9.579-5.875 12.781-4.358 2.862-8.962 3.32-13.812 1.375-4.837-2.339-7.598-6.183-8.281-11.53-.325-5.32 1.623-9.58 5.843-12.782 4.358-2.861 8.963-3.32 13.813-1.375 4.838 2.35 7.609 6.193 8.312 11.531zm-2 1.125c-.172 5.109-2.526 8.807-7.062 11.094-3.12 1.304-6.267 1.367-9.438.188-3.835-1.69-6.241-4.576-7.219-8.657-.824-5.09.811-9.184 4.907-12.281C12.587 3.92 16.19 3.441 20.03 4.688c4.03 1.55 6.581 4.414 7.657 8.593a17.2 17.2 0 01.343 2.5z" fill="#999"/><path opacity=".976" fill-rule="evenodd" clip-rule="evenodd" d="M24.094 15.844a1.7 1.7 0 01-.219.75l-7.219 7.218c-.893.387-1.455.106-1.687-.843.034-.222.107-.43.219-.625 1.78-1.782 3.562-3.563 5.343-5.344l-11.875-.063c-.436-.175-.645-.498-.625-.968-.02-.47.189-.794.625-.969 3.959-.02 7.917-.042 11.875-.063l-5.343-5.343c-.388-.893-.106-1.455.843-1.688.22.038.43.111.625.219l7.219 7.219c.092.166.165.333.219.5z" fill="#999"/></svg>