<svg width="30" height="30" fill="#fff" xmlns="http://www.w3.org/2000/svg"><g clip-path="url(#clip0_44_64)"><path opacity=".987" fill-rule="evenodd" clip-rule="evenodd" d="M13.623-.03h2.695c5.253.639 9.208 3.236 11.866 7.794a15.876 15.876 0 011.787 5.859v2.695c-.638 5.253-3.236 9.208-7.793 11.866a15.875 15.875 0 01-5.86 1.787h-2.695c-5.253-.638-9.208-3.236-11.865-7.793a15.875 15.875 0 01-1.787-5.86v-2.695C.609 8.371 3.206 4.415 7.764 1.758A15.876 15.876 0 0113.623-.03zM6.24 8.995a867.88 867.88 0 0117.461-.03l-7.969 7.97a9.927 9.927 0 01-1.523 0 1524.6 1524.6 0 00-7.969-7.94zm-.761.762a358.24 358.24 0 015.449 5.45 712.187 712.187 0 01-5.42 5.448c-.03-3.633-.04-7.265-.03-10.898zm18.925 0c.069 3.623.078 7.256.03 10.898a712.005 712.005 0 01-5.42-5.449l5.39-5.45zm-12.714 6.21a94.158 94.158 0 011.992 1.964 7.45 7.45 0 001.289.088 7.45 7.45 0 001.289-.088l1.963-1.963 5.01 5.01c-5.508.039-11.016.039-16.524 0a601.609 601.609 0 004.98-5.01z"/></g><defs><clipPath id="clip0_44_64"><path d="M0 0h30v30H0z"/></clipPath></defs></svg>