<svg width="48" height="48" fill="none" xmlns="http://www.w3.org/2000/svg"><g clip-path="url(#clip0_25_584)" fill-rule="evenodd" clip-rule="evenodd"><path opacity=".946" d="M3.14-.047h.844a583.74 583.74 0 006.938 4.164c.09.133.168.273.234.421l.094 2.62 11.438 11.415 6.843-6.83c-.885-4.392.506-7.87 4.172-10.433A11.281 11.281 0 0137.36-.047h2.625c.703.114 1.39.317 2.063.608.326.382.404.803.234 1.264-1.278 1.37-2.59 2.71-3.937 4.023-.063.655-.063 1.31 0 1.965a29.133 29.133 0 011.922 2.012c.625.062 1.25.062 1.875 0a130.89 130.89 0 014.218-4.117c.558-.138.98.034 1.266.514.097.359.206.702.328 1.03v4.116c-1.324 4.594-4.386 7.058-9.187 7.392a87.389 87.389 0 01-2.532-.234l-5.437 5.427c.45.356.872.745 1.265 1.17a2.264 2.264 0 011.079-.796c.904.01 1.263.461 1.078 1.357-.153.246-.34.464-.563.655-.062.063-.062.125 0 .187 4.113 3.824 8.253 7.614 12.422 11.369a7.49 7.49 0 011.875 2.76v3.275c-.79 2.128-2.29 3.47-4.5 4.023h-2.062a7.304 7.304 0 01-2.625-1.263A1220.64 1220.64 0 0126.53 33.45a4.24 4.24 0 01-.797.702c-.794.174-1.263-.138-1.406-.936.14-.495.421-.9.844-1.216-.356-.45-.747-.87-1.172-1.263l-5.438 5.427c.851 4.378-.54 7.855-4.171 10.432a11.279 11.279 0 01-3.657 1.357H8.11a8.635 8.635 0 01-2.062-.608c-.326-.381-.405-.802-.234-1.263l4.03-4.024c.063-.654.063-1.31 0-1.965l-2.015-2.011a9.413 9.413 0 00-1.875 0l-4.031 4.023c-.505.227-.958.149-1.36-.234a12.913 12.913 0 01-.609-2.339v-1.778c.436-3.627 2.31-6.232 5.625-7.812a10.591 10.591 0 016.281-.562l6.75-6.737A975.533 975.533 0 017.266 11.228l-2.532-.094a1.356 1.356 0 01-.515-.233A428.707 428.707 0 01-.047 3.789v-.561A39.41 39.41 0 013.141-.047zm34.5 1.965c.564-.015 1.127 0 1.688.047l-2.953 3.134a31.984 31.984 0 000 3.462l2.766 2.948c.166.134.354.228.562.28 1 .063 2 .063 3 0 .164-.044.32-.106.469-.187l2.953-2.947c.089 3.863-1.677 6.467-5.297 7.813a7.89 7.89 0 01-4.828-.14 2.413 2.413 0 00-.516.14l-18.89 18.854c-.095.19-.141.393-.14.608 1.12 4.313-.287 7.494-4.22 9.544a6.975 6.975 0 01-3.468.468 71.984 71.984 0 003.046-3.135 31.985 31.985 0 000-3.462 63.486 63.486 0 00-2.859-2.947 1.444 1.444 0 00-.562-.281c-1-.063-2-.063-3 0-.164.044-.32.106-.47.187L1.97 39.251c-.09-3.858 1.675-6.462 5.297-7.812a7.889 7.889 0 014.828.14c.177-.028.349-.075.515-.14L31.5 12.585a1.34 1.34 0 00.14-.608c-1.12-4.313.287-7.494 4.22-9.544.593-.218 1.186-.39 1.78-.515zm-33.937.187L9.141 5.38c.078.778.124 1.558.14 2.34.053.207.147.395.281.56l11.626 11.603c.062.062.062.125 0 .187l-1.079 1.076c-.062.063-.125.063-.187 0A534.221 534.221 0 008.016 9.263a36.78 36.78 0 01-2.579-.14 298.356 298.356 0 00-3.234-5.427l1.5-1.59zm25.594 23.299c.29.18.572.382.844.608.23.162.37.365.422.608a236.477 236.477 0 01-3.985 3.93 18.195 18.195 0 00-1.078-1.123c-.063-.063-.063-.125 0-.187a219.156 219.156 0 003.797-3.836zm2.719 2.526c.133.02.258.066.375.14 4.128 3.84 8.284 7.645 12.468 11.415 1.797 1.995 1.735 3.929-.187 5.801-1.86 1.104-3.564.901-5.11-.608a1098.807 1098.807 0 00-11.53-12.538c-.063-.062-.063-.124 0-.187a241.596 241.596 0 003.984-4.023z" fill="url(#paint0_linear_25_584)"/><path opacity=".891" d="M32.297 14.456c1.114.044 1.474.574 1.078 1.59-.635.54-1.197.477-1.688-.186-.2-.66.003-1.128.61-1.404z" fill="url(#paint1_linear_25_584)"/><path opacity=".94" d="M29.766 17.076c1.065.16 1.361.722.89 1.684l-11.86 11.836c-.65.349-1.165.209-1.546-.42a1.176 1.176 0 01.188-1.03L29.297 17.31c.17-.07.326-.149.469-.234z" fill="url(#paint2_linear_25_584)"/><path opacity=".891" d="M15.234 31.485c.988-.028 1.378.44 1.172 1.404-.407.595-.922.705-1.547.327-.379-.43-.425-.883-.14-1.356.17-.139.341-.263.515-.375z" fill="url(#paint3_linear_25_584)"/><path opacity=".939" d="M33.14 32.234c.35.007.663.116.938.327l8.484 8.468c.413.86.163 1.39-.75 1.59a.896.896 0 01-.703-.233l-8.578-8.562c-.354-.738-.15-1.268.61-1.59z" fill="url(#paint4_linear_25_584)"/></g><defs><linearGradient id="paint0_linear_25_584" x1="23.953" y1="-.047" x2="23.953" y2="47.953" gradientUnits="userSpaceOnUse"><stop stop-color="#55B4D4"/><stop offset="1" stop-color="#5758E0"/></linearGradient><linearGradient id="paint1_linear_25_584" x1="32.572" y1="14.456" x2="32.572" y2="16.409" gradientUnits="userSpaceOnUse"><stop stop-color="#55B4D4"/><stop offset="1" stop-color="#5758E0"/></linearGradient><linearGradient id="paint2_linear_25_584" x1="24.039" y1="17.076" x2="24.039" y2="30.783" gradientUnits="userSpaceOnUse"><stop stop-color="#55B4D4"/><stop offset="1" stop-color="#5758E0"/></linearGradient><linearGradient id="paint3_linear_25_584" x1="15.497" y1="31.484" x2="15.497" y2="33.436" gradientUnits="userSpaceOnUse"><stop stop-color="#55B4D4"/><stop offset="1" stop-color="#5758E0"/></linearGradient><linearGradient id="paint4_linear_25_584" x1="37.559" y1="32.234" x2="37.559" y2="42.624" gradientUnits="userSpaceOnUse"><stop stop-color="#55B4D4"/><stop offset="1" stop-color="#5758E0"/></linearGradient><clipPath id="clip0_25_584"><path fill="#fff" d="M0 0h48v48H0z"/></clipPath></defs></svg>