<svg width="48" height="48" viewBox="0 0 48 48" fill="none" xmlns="http://www.w3.org/2000/svg">
<path opacity="0.917" fill-rule="evenodd" clip-rule="evenodd" d="M11.7656 0.328125C18.5782 0.3125 25.3907 0.328125 32.2031 0.375C32.3746 0.400637 32.5152 0.478761 32.625 0.609375C32.7493 6.22666 32.8117 11.8517 32.8125 17.4844C36.3951 19.6625 38.2544 22.8655 38.3906 27.0938C38.3448 29.262 37.7511 31.262 36.6094 33.0938C40.1525 36.7306 43.7306 40.34 47.3437 43.9219C48.1122 45.0942 48.0028 46.1723 47.0156 47.1562C45.9842 47.7293 45.0155 47.6355 44.1094 46.875C40.5612 43.3112 36.9987 39.7643 33.4219 36.2344C33.2266 36.3712 33.0234 36.4961 32.8125 36.6094C32.7813 38.9531 32.75 41.2969 32.7187 43.6406C32.6719 43.8125 32.5625 43.9219 32.3906 43.9688C21.7343 44.0313 11.0782 44.0313 0.421875 43.9688C0.335978 43.9337 0.257853 43.8868 0.1875 43.8281C0.0316395 33.1482 0.000389546 22.4607 0.0937496 11.7656C3.98208 7.92391 7.8727 4.11141 11.7656 0.328125ZM12.7031 1.64062C18.9532 1.64062 25.2031 1.64062 31.4531 1.64062C31.4843 6.70351 31.4531 11.766 31.3594 16.8281C26.4689 15.2186 22.297 16.3124 18.8437 20.1094C16.3522 23.4555 15.7897 27.1117 17.1562 31.0781C18.4049 34.1393 20.5767 36.2486 23.6719 37.4062C26.2702 38.2587 28.8484 38.2118 31.4062 37.2656C31.4531 39.0778 31.4688 40.8904 31.4531 42.7031C21.4219 42.7031 11.3906 42.7031 1.35937 42.7031C1.35937 32.7031 1.35937 22.7032 1.35937 12.7031C5.047 12.7188 8.73451 12.7031 12.4219 12.6562C12.5345 12.5716 12.6127 12.4623 12.6562 12.3281C12.7031 8.76577 12.7188 5.20327 12.7031 1.64062ZM11.2969 2.57812C11.3904 5.53084 11.4218 8.49959 11.3906 11.4844C8.35921 11.5 5.32796 11.4844 2.29687 11.4375C5.31565 8.4968 8.31565 5.54367 11.2969 2.57812ZM26.2969 17.3906C30.4373 17.1716 33.6093 18.7966 35.8125 22.2656C37.6777 25.9296 37.459 29.4608 35.1562 32.8594C32.0509 36.4992 28.2228 37.5461 23.6719 36C19.9078 34.2167 17.9078 31.2323 17.6719 27.0469C17.9735 22.4823 20.2548 19.4042 24.5156 17.8125C25.1183 17.6539 25.7122 17.5133 26.2969 17.3906ZM35.6719 34.2656C36.4147 34.852 37.1023 35.5083 37.7344 36.2344C37.3608 36.6548 36.9702 37.0611 36.5625 37.4531C35.8906 36.7812 35.2188 36.1094 34.5469 35.4375C34.941 35.0591 35.316 34.6686 35.6719 34.2656ZM38.6719 37.1719C41.2624 39.7155 43.8405 42.278 46.4062 44.8594C46.7197 45.6074 46.4854 46.0762 45.7031 46.2656C45.4587 46.2059 45.24 46.0965 45.0469 45.9375C42.5625 43.4531 40.0781 40.9688 37.5937 38.4844C37.5312 38.4218 37.5312 38.3594 37.5937 38.2969C37.9722 37.9342 38.3316 37.5592 38.6719 37.1719Z" fill="url(#paint0_linear_21_295)"/>
<defs>
<linearGradient id="paint0_linear_21_295" x1="23.9448" y1="0.322266" x2="23.9448" y2="47.5256" gradientUnits="userSpaceOnUse">
<stop stop-color="#55B4D4"/>
<stop offset="1" stop-color="#5758E0"/>
</linearGradient>
</defs>
</svg>
