<svg width="124" height="30" viewBox="0 0 124 30" fill="none" xmlns="http://www.w3.org/2000/svg">
<path d="M11.1577 17.8977H15.8622L18.2273 20.9403L20.554 23.6506L24.9389 29.1477H19.7741L16.7571 25.4403L15.2102 23.2415L11.1577 17.8977ZM25.3352 13.9091C25.3352 16.7642 24.794 19.1932 23.7116 21.196C22.6378 23.1989 21.1719 24.7287 19.3139 25.7855C17.4645 26.8338 15.3849 27.358 13.0753 27.358C10.7486 27.358 8.66051 26.8295 6.81108 25.7727C4.96165 24.7159 3.5 23.1861 2.42614 21.1832C1.35227 19.1804 0.815341 16.7557 0.815341 13.9091C0.815341 11.054 1.35227 8.625 2.42614 6.62216C3.5 4.61932 4.96165 3.09375 6.81108 2.04545C8.66051 0.988636 10.7486 0.460226 13.0753 0.460226C15.3849 0.460226 17.4645 0.988636 19.3139 2.04545C21.1719 3.09375 22.6378 4.61932 23.7116 6.62216C24.794 8.625 25.3352 11.054 25.3352 13.9091ZM19.723 13.9091C19.723 12.0597 19.446 10.5 18.892 9.23011C18.3466 7.96023 17.5753 6.99716 16.5781 6.34091C15.581 5.68466 14.4134 5.35653 13.0753 5.35653C11.7372 5.35653 10.5696 5.68466 9.57244 6.34091C8.57528 6.99716 7.79972 7.96023 7.24574 9.23011C6.70028 10.5 6.42756 12.0597 6.42756 13.9091C6.42756 15.7585 6.70028 17.3182 7.24574 18.5881C7.79972 19.858 8.57528 20.821 9.57244 21.4773C10.5696 22.1335 11.7372 22.4616 13.0753 22.4616C14.4134 22.4616 15.581 22.1335 16.5781 21.4773C17.5753 20.821 18.3466 19.858 18.892 18.5881C19.446 17.3182 19.723 15.7585 19.723 13.9091ZM32.4719 27H26.5401L35.5785 0.818181H42.712L51.7376 27H45.8058L39.2475 6.80114H39.043L32.4719 27ZM32.1012 16.7088H46.1126V21.0298H32.1012V16.7088ZM54.8888 27V0.818181H60.4244V11.6207H71.6616V0.818181H77.1843V27H71.6616V16.1847H60.4244V27H54.8888ZM94.2383 18.6392V7.36364H99.6843V27H94.4556V23.4332H94.2511C93.8079 24.5838 93.0707 25.5085 92.0394 26.2074C91.0167 26.9062 89.7681 27.2557 88.2937 27.2557C86.9812 27.2557 85.8263 26.9574 84.8292 26.3608C83.832 25.7642 83.0522 24.9162 82.4897 23.8168C81.9357 22.7173 81.6545 21.4006 81.646 19.8665V7.36364H87.092V18.8949C87.1005 20.054 87.4116 20.9702 88.0252 21.6435C88.6388 22.3168 89.4613 22.6534 90.4925 22.6534C91.1488 22.6534 91.7624 22.5043 92.3335 22.206C92.9045 21.8991 93.3647 21.4474 93.7141 20.8509C94.0721 20.2543 94.2468 19.517 94.2383 18.6392ZM104.143 27V0.818181H109.589V10.6619H109.755C109.994 10.1335 110.339 9.59659 110.79 9.05114C111.251 8.49716 111.847 8.03693 112.58 7.67045C113.322 7.29545 114.242 7.10795 115.342 7.10795C116.773 7.10795 118.094 7.48295 119.305 8.23295C120.515 8.97443 121.482 10.0952 122.207 11.5952C122.931 13.0866 123.293 14.9574 123.293 17.2074C123.293 19.3977 122.94 21.2472 122.232 22.7557C121.533 24.2557 120.579 25.3935 119.369 26.169C118.167 26.9361 116.82 27.3196 115.329 27.3196C114.272 27.3196 113.373 27.1449 112.631 26.7955C111.898 26.446 111.298 26.0071 110.829 25.4787C110.36 24.9418 110.002 24.4006 109.755 23.8551H109.512V27H104.143ZM109.474 17.1818C109.474 18.3494 109.636 19.3679 109.96 20.2372C110.283 21.1065 110.752 21.7841 111.366 22.2699C111.979 22.7472 112.725 22.9858 113.603 22.9858C114.489 22.9858 115.239 22.7429 115.853 22.2571C116.467 21.7628 116.931 21.081 117.246 20.2116C117.57 19.3338 117.732 18.3239 117.732 17.1818C117.732 16.0483 117.575 15.0511 117.259 14.1903C116.944 13.3295 116.479 12.6562 115.866 12.1705C115.252 11.6847 114.498 11.4418 113.603 11.4418C112.717 11.4418 111.967 11.6761 111.353 12.1449C110.748 12.6136 110.283 13.2784 109.96 14.1392C109.636 15 109.474 16.0142 109.474 17.1818Z" fill="white"/>
</svg>
