<svg width="161" height="35" viewBox="0 0 161 35" fill="none" xmlns="http://www.w3.org/2000/svg">
<path d="M11.1577 17.8977H15.8622L18.2273 20.9403L20.554 23.6506L24.9389 29.1477H19.7741L16.7571 25.4403L15.2102 23.2415L11.1577 17.8977ZM25.3352 13.9091C25.3352 16.7642 24.794 19.1932 23.7116 21.196C22.6378 23.1989 21.1719 24.7287 19.3139 25.7855C17.4645 26.8338 15.3849 27.358 13.0753 27.358C10.7486 27.358 8.66051 26.8295 6.81108 25.7727C4.96165 24.7159 3.5 23.1861 2.42614 21.1832C1.35227 19.1804 0.815341 16.7557 0.815341 13.9091C0.815341 11.054 1.35227 8.625 2.42614 6.62216C3.5 4.61932 4.96165 3.09375 6.81108 2.04545C8.66051 0.988636 10.7486 0.460226 13.0753 0.460226C15.3849 0.460226 17.4645 0.988636 19.3139 2.04545C21.1719 3.09375 22.6378 4.61932 23.7116 6.62216C24.794 8.625 25.3352 11.054 25.3352 13.9091ZM19.723 13.9091C19.723 12.0597 19.446 10.5 18.892 9.23011C18.3466 7.96023 17.5753 6.99716 16.5781 6.34091C15.581 5.68466 14.4134 5.35653 13.0753 5.35653C11.7372 5.35653 10.5696 5.68466 9.57244 6.34091C8.57528 6.99716 7.79972 7.96023 7.24574 9.23011C6.70028 10.5 6.42756 12.0597 6.42756 13.9091C6.42756 15.7585 6.70028 17.3182 7.24574 18.5881C7.79972 19.858 8.57528 20.821 9.57244 21.4773C10.5696 22.1335 11.7372 22.4616 13.0753 22.4616C14.4134 22.4616 15.581 22.1335 16.5781 21.4773C17.5753 20.821 18.3466 19.858 18.892 18.5881C19.446 17.3182 19.723 15.7585 19.723 13.9091ZM32.4719 27H26.5401L35.5785 0.818181H42.712L51.7376 27H45.8058L39.2475 6.80114H39.043L32.4719 27ZM32.1012 16.7088H46.1126V21.0298H32.1012V16.7088ZM68.4943 8.34801C68.392 7.31676 67.9531 6.51562 67.1776 5.9446C66.402 5.37358 65.3494 5.08807 64.0199 5.08807C63.1165 5.08807 62.3537 5.21591 61.7315 5.47159C61.1094 5.71875 60.6321 6.06392 60.2997 6.5071C59.9759 6.95028 59.8139 7.45312 59.8139 8.01562C59.7969 8.48438 59.8949 8.89347 60.108 9.2429C60.3295 9.59233 60.6321 9.89489 61.0156 10.1506C61.3991 10.3977 61.8423 10.6151 62.3452 10.8026C62.848 10.9815 63.3849 11.1349 63.956 11.2628L66.3082 11.8253C67.4503 12.081 68.4986 12.4219 69.4531 12.848C70.4077 13.2741 71.2344 13.7983 71.9332 14.4205C72.6321 15.0426 73.1733 15.7756 73.5568 16.6193C73.9489 17.4631 74.1491 18.4304 74.1577 19.5213C74.1491 21.1236 73.7401 22.5128 72.9304 23.6889C72.1293 24.8565 70.9702 25.7642 69.4531 26.4119C67.9446 27.0511 66.125 27.3707 63.9943 27.3707C61.8807 27.3707 60.0398 27.0469 58.4716 26.3991C56.9119 25.7514 55.6932 24.7926 54.8153 23.5227C53.946 22.2443 53.4901 20.6634 53.4474 18.7798H58.804C58.8636 19.6577 59.1151 20.3906 59.5582 20.9787C60.0099 21.5582 60.6108 21.9972 61.3608 22.2955C62.1193 22.5852 62.9759 22.7301 63.9304 22.7301C64.8679 22.7301 65.6818 22.5937 66.3722 22.321C67.071 22.0483 67.6122 21.669 67.9957 21.1832C68.3793 20.6974 68.571 20.1392 68.571 19.5085C68.571 18.9205 68.3963 18.4261 68.0469 18.0256C67.706 17.625 67.2031 17.2841 66.5384 17.0028C65.8821 16.7216 65.0767 16.4659 64.1222 16.2358L61.2713 15.5199C59.0639 14.983 57.321 14.1435 56.0426 13.0014C54.7642 11.8594 54.1293 10.321 54.1378 8.38636C54.1293 6.80114 54.5511 5.41619 55.4034 4.23153C56.2642 3.04687 57.4446 2.12216 58.9446 1.45739C60.4446 0.792613 62.1491 0.460226 64.0582 0.460226C66.0014 0.460226 67.6974 0.792613 69.1463 1.45739C70.6037 2.12216 71.7372 3.04687 72.5469 4.23153C73.3565 5.41619 73.7741 6.78835 73.7997 8.34801H68.4943ZM77.7788 34.3636V7.36364H83.1481V10.6619H83.391C83.6296 10.1335 83.9748 9.59659 84.4265 9.05114C84.8867 8.49716 85.4833 8.03693 86.2163 7.67045C86.9577 7.29545 87.8782 7.10795 88.9776 7.10795C90.4094 7.10795 91.7305 7.48295 92.9407 8.23295C94.1509 8.97443 95.1183 10.0952 95.8427 11.5952C96.5671 13.0866 96.9293 14.9574 96.9293 17.2074C96.9293 19.3977 96.5756 21.2472 95.8683 22.7557C95.1694 24.2557 94.2148 25.3935 93.0046 26.169C91.8029 26.9361 90.4563 27.3196 88.9648 27.3196C87.908 27.3196 87.0089 27.1449 86.2674 26.7955C85.5344 26.446 84.9336 26.0071 84.4648 25.4787C83.9961 24.9418 83.6381 24.4006 83.391 23.8551H83.2248V34.3636H77.7788ZM83.1097 17.1818C83.1097 18.3494 83.2717 19.3679 83.5955 20.2372C83.9194 21.1065 84.3881 21.7841 85.0018 22.2699C85.6154 22.7472 86.3612 22.9858 87.239 22.9858C88.1254 22.9858 88.8754 22.7429 89.489 22.2571C90.1026 21.7628 90.5671 21.081 90.8825 20.2116C91.2063 19.3338 91.3683 18.3239 91.3683 17.1818C91.3683 16.0483 91.2106 15.0511 90.8952 14.1903C90.5799 13.3295 90.1154 12.6562 89.5018 12.1705C88.8881 11.6847 88.1339 11.4418 87.239 11.4418C86.3526 11.4418 85.6026 11.6761 84.989 12.1449C84.3839 12.6136 83.9194 13.2784 83.5955 14.1392C83.2717 15 83.1097 16.0142 83.1097 17.1818ZM106.159 27.3707C104.907 27.3707 103.79 27.1534 102.81 26.7188C101.83 26.2756 101.054 25.6236 100.483 24.7628C99.9208 23.8935 99.6396 22.8111 99.6396 21.5156C99.6396 20.4247 99.8398 19.5085 100.24 18.767C100.641 18.0256 101.186 17.429 101.877 16.9773C102.567 16.5256 103.351 16.1847 104.229 15.9545C105.115 15.7244 106.044 15.5625 107.016 15.4688C108.158 15.3494 109.078 15.2386 109.777 15.1364C110.476 15.0256 110.983 14.8636 111.299 14.6506C111.614 14.4375 111.772 14.1222 111.772 13.7045V13.6278C111.772 12.8182 111.516 12.1918 111.005 11.7486C110.502 11.3054 109.786 11.0838 108.857 11.0838C107.877 11.0838 107.097 11.3011 106.517 11.7358C105.938 12.1619 105.554 12.6989 105.367 13.3466L100.33 12.9375C100.586 11.7443 101.088 10.7131 101.838 9.84375C102.588 8.96591 103.556 8.29261 104.74 7.82386C105.934 7.34659 107.314 7.10795 108.882 7.10795C109.973 7.10795 111.017 7.2358 112.015 7.49148C113.02 7.74716 113.911 8.14347 114.686 8.6804C115.471 9.21733 116.088 9.90767 116.54 10.7514C116.992 11.5866 117.218 12.5881 117.218 13.7557V27H112.053V24.277H111.9C111.584 24.8906 111.162 25.4318 110.634 25.9006C110.105 26.3608 109.471 26.723 108.729 26.9872C107.988 27.2429 107.131 27.3707 106.159 27.3707ZM107.719 23.6122C108.52 23.6122 109.228 23.4545 109.841 23.1392C110.455 22.8153 110.936 22.3807 111.286 21.8352C111.635 21.2898 111.81 20.6719 111.81 19.9815V17.8977C111.64 18.0085 111.405 18.1108 111.107 18.2045C110.817 18.2898 110.489 18.3707 110.123 18.4474C109.756 18.5156 109.39 18.5795 109.023 18.6392C108.657 18.6903 108.324 18.7372 108.026 18.7798C107.387 18.8736 106.828 19.0227 106.351 19.2273C105.874 19.4318 105.503 19.7088 105.239 20.0582C104.975 20.3991 104.843 20.8253 104.843 21.3366C104.843 22.0781 105.111 22.6449 105.648 23.0369C106.194 23.4205 106.884 23.6122 107.719 23.6122ZM130.315 27.3835C128.304 27.3835 126.574 26.9574 125.125 26.1051C123.684 25.2443 122.576 24.0511 121.801 22.5256C121.034 21 120.65 19.2443 120.65 17.2585C120.65 15.2472 121.038 13.483 121.814 11.9659C122.598 10.4403 123.71 9.25142 125.15 8.39915C126.591 7.53835 128.304 7.10795 130.289 7.10795C132.002 7.10795 133.502 7.41903 134.789 8.04119C136.076 8.66335 137.095 9.53693 137.845 10.6619C138.595 11.7869 139.008 13.108 139.085 14.625H133.946C133.801 13.6449 133.417 12.8565 132.795 12.2599C132.181 11.6548 131.376 11.3523 130.379 11.3523C129.535 11.3523 128.798 11.5824 128.167 12.0426C127.545 12.4943 127.059 13.1548 126.71 14.0241C126.36 14.8935 126.186 15.946 126.186 17.1818C126.186 18.4347 126.356 19.5 126.697 20.3778C127.047 21.2557 127.537 21.9247 128.167 22.3849C128.798 22.8452 129.535 23.0753 130.379 23.0753C131.001 23.0753 131.559 22.9474 132.054 22.6918C132.556 22.4361 132.97 22.0653 133.294 21.5795C133.626 21.0852 133.843 20.4929 133.946 19.8026H139.085C139 21.3026 138.591 22.6236 137.858 23.7656C137.133 24.8991 136.132 25.7855 134.853 26.4247C133.575 27.0639 132.062 27.3835 130.315 27.3835ZM151.521 27.3835C149.501 27.3835 147.762 26.9744 146.305 26.1562C144.856 25.3295 143.739 24.1619 142.955 22.6534C142.171 21.1364 141.779 19.3423 141.779 17.2713C141.779 15.2514 142.171 13.4787 142.955 11.9531C143.739 10.4276 144.843 9.23864 146.266 8.38636C147.698 7.53409 149.377 7.10795 151.303 7.10795C152.599 7.10795 153.805 7.31676 154.921 7.73438C156.046 8.14347 157.026 8.76136 157.862 9.58807C158.705 10.4148 159.362 11.4545 159.83 12.7074C160.299 13.9517 160.533 15.4091 160.533 17.0795V18.5753H143.952V15.2003H155.407C155.407 14.4162 155.237 13.7216 154.896 13.1165C154.555 12.5114 154.082 12.0384 153.477 11.6974C152.88 11.348 152.185 11.1733 151.393 11.1733C150.566 11.1733 149.833 11.3651 149.194 11.7486C148.563 12.1236 148.069 12.6307 147.711 13.2699C147.353 13.9006 147.17 14.6037 147.161 15.3793V18.5881C147.161 19.5597 147.34 20.3991 147.698 21.1065C148.065 21.8139 148.58 22.3594 149.245 22.7429C149.91 23.1264 150.698 23.3182 151.61 23.3182C152.215 23.3182 152.769 23.233 153.272 23.0625C153.775 22.892 154.205 22.6364 154.563 22.2955C154.921 21.9545 155.194 21.5369 155.381 21.0426L160.418 21.375C160.163 22.5852 159.638 23.642 158.846 24.5455C158.062 25.4403 157.048 26.1392 155.803 26.642C154.567 27.1364 153.14 27.3835 151.521 27.3835Z" fill="white"/>
</svg>
