<svg width="48" height="48" viewBox="0 0 48 48" fill="none" xmlns="http://www.w3.org/2000/svg">
<path opacity="0.938" fill-rule="evenodd" clip-rule="evenodd" d="M23.3906 0.703137C23.8669 0.679671 24.3356 0.726546 24.7969 0.843762C30.858 2.44772 36.9049 4.08835 42.9375 5.76564C43.3392 6.60345 43.0735 7.10345 42.1406 7.26564C42.0312 9.98383 42.0157 12.7026 42.0938 15.4219C42.7108 15.7694 43.3202 16.1289 43.9219 16.5C43.9806 16.5703 44.0274 16.6485 44.0625 16.7344C44.125 19.1407 44.125 21.5469 44.0625 23.9531C43.7855 24.3072 43.4261 24.4165 42.9844 24.2813C42.3963 23.8704 41.8182 23.4485 41.25 23.0156C40.678 23.3685 40.1312 23.7592 39.6094 24.1875C39.1839 24.4034 38.7933 24.3565 38.4375 24.0469C38.4063 23.9531 38.375 23.8594 38.3438 23.7656C38.2812 21.4531 38.2812 19.1407 38.3438 16.8281C38.4174 16.6607 38.5267 16.5201 38.6719 16.4063C39.2466 16.0969 39.8091 15.7688 40.3594 15.4219C40.4531 12.8602 40.4844 10.2976 40.4531 7.73439C39.3907 7.98439 38.3281 8.23438 37.2656 8.48439C37.2813 11.7658 37.2656 15.0471 37.2188 18.3281C37.1752 18.4623 37.097 18.5716 36.9844 18.6563C34.2712 19.2115 31.5524 19.7426 28.8281 20.25C27.2012 20.5647 25.5606 20.7678 23.9063 20.8594C22.4418 20.7837 20.9887 20.6119 19.5469 20.3438C16.6374 19.7931 13.7312 19.2306 10.8281 18.6563C10.7155 18.5716 10.6374 18.4623 10.5938 18.3281C10.5469 15.0471 10.5312 11.7658 10.5469 8.48439C8.69337 8.04443 6.84963 7.56005 5.01563 7.03126C4.5699 6.62335 4.53865 6.18585 4.92188 5.71876C11.0921 4.05922 17.2484 2.38735 23.3906 0.703137ZM23.6719 2.29689C28.8462 3.58268 34.0025 4.94205 39.1406 6.37501C34.0538 7.71309 28.9756 9.07246 23.9063 10.4531C18.8369 9.07246 13.7588 7.71309 8.67188 6.37501C13.6818 5.01337 18.6819 3.65399 23.6719 2.29689ZM12.1406 8.95314C16.0557 10.0061 19.9776 11.0374 23.9063 12.0469C27.8065 11.0523 31.6972 10.021 35.5781 8.95314C35.7031 11.7344 35.7031 14.5156 35.5781 17.2969C33.0829 17.799 30.5829 18.2834 28.0781 18.75C25.682 19.3071 23.2758 19.3696 20.8594 18.9375C18.0112 18.4303 15.1674 17.8991 12.3281 17.3438C12.1419 14.5679 12.0793 11.7711 12.1406 8.95314ZM41.1094 16.8281C41.567 16.9944 42.0045 17.2132 42.4219 17.4844C42.5312 18.9521 42.5469 20.4209 42.4688 21.8906C42.1099 21.5317 41.688 21.2816 41.2031 21.1406C40.7496 21.3129 40.3433 21.5629 39.9844 21.8906C39.8751 20.4542 39.8594 19.0166 39.9375 17.5781C40.3421 17.3376 40.7328 17.0875 41.1094 16.8281Z" fill="url(#paint0_linear_25_473)"/>
<path opacity="0.932" fill-rule="evenodd" clip-rule="evenodd" d="M4.26563 26.2969C7.85951 26.2812 11.4533 26.2969 15.0469 26.3438C15.3214 26.4619 15.4932 26.665 15.5625 26.9531C15.6794 30.6112 17.3825 33.2205 20.6719 34.7813C24.375 36.1015 27.5782 35.3359 30.2813 32.4844C31.5998 30.7795 32.2872 28.8419 32.3438 26.6719C32.4576 26.5267 32.5982 26.4174 32.7656 26.3438C36.3593 26.2812 39.9532 26.2812 43.5469 26.3438C43.75 26.4219 43.8907 26.5625 43.9688 26.7656C44.0313 27.8906 44.0313 29.0156 43.9688 30.1406C43.8065 30.3391 43.6033 30.4797 43.3594 30.5625C42.4623 30.877 41.5873 31.2363 40.7344 31.6406C40.3046 33.1179 39.7108 34.5241 38.9531 35.8594C39.3695 36.7233 39.7601 37.5984 40.125 38.4844C40.3238 38.8468 40.2924 39.1906 40.0313 39.5156C38.7968 40.75 37.5625 41.9844 36.3281 43.2188C36.0734 43.4134 35.7922 43.4759 35.4844 43.4063C34.5358 43.0101 33.5983 42.5882 32.6719 42.1406C31.3121 42.9298 29.8746 43.5392 28.3594 43.9688C27.982 44.8817 27.6227 45.8035 27.2813 46.7344C27.2077 46.9018 27.0983 47.0425 26.9531 47.1563C24.9218 47.2188 22.8907 47.2188 20.8594 47.1563C20.7142 47.0425 20.6048 46.9018 20.5313 46.7344C20.1898 45.8035 19.8305 44.8817 19.4531 43.9688C17.9379 43.5392 16.5004 42.9298 15.1406 42.1406C14.2142 42.5882 13.2767 43.0101 12.3281 43.4063C12.0203 43.4759 11.7391 43.4134 11.4844 43.2188C10.25 41.9844 9.01563 40.75 7.78125 39.5156C7.60454 39.2893 7.54204 39.0393 7.59375 38.7656C8.01563 37.7969 8.4375 36.8281 8.85938 35.8594C8.10164 34.5241 7.5079 33.1179 7.07813 31.6406C6.2252 31.2363 5.35019 30.877 4.45313 30.5625C4.20915 30.4797 4.00602 30.3391 3.84375 30.1406C3.78125 29.0156 3.78125 27.8906 3.84375 26.7656C3.93985 26.5606 4.08047 26.4043 4.26563 26.2969ZM5.39063 27.8906C8.26563 27.8906 11.1406 27.8906 14.0156 27.8906C14.4818 31.9335 16.5755 34.7617 20.2969 36.375C24.9676 37.87 28.8582 36.7294 31.9688 32.9531C33.0511 31.441 33.6605 29.7535 33.7969 27.8906C36.6719 27.8906 39.5468 27.8906 42.4219 27.8906C42.4525 28.3326 42.4212 28.77 42.3281 29.2031C41.488 29.5405 40.6443 29.8686 39.7969 30.1875C39.6294 30.2611 39.4888 30.3704 39.375 30.5156C38.9199 32.2694 38.2324 33.9257 37.3125 35.4844C37.25 35.7031 37.25 35.9219 37.3125 36.1406C37.7035 37.0016 38.0941 37.861 38.4844 38.7188C37.5 39.7031 36.5156 40.6875 35.5313 41.6719C34.5731 41.2006 33.5888 40.7944 32.5781 40.4531C31.759 40.8157 30.9466 41.2063 30.1406 41.625C29.216 41.9749 28.2785 42.2875 27.3281 42.5625C27.1829 42.6763 27.0736 42.817 27 42.9844C26.6432 43.8832 26.3151 44.7895 26.0156 45.7031C24.6403 45.7188 23.2653 45.7031 21.8906 45.6563C21.5446 44.8372 21.2165 44.0091 20.9063 43.1719C20.8235 42.928 20.6828 42.7248 20.4844 42.5625C18.7306 42.1075 17.0743 41.4199 15.5156 40.5C15.2256 40.4389 14.9443 40.4702 14.6719 40.5938C13.8791 40.9668 13.0823 41.3261 12.2813 41.6719C11.2969 40.6875 10.3125 39.7031 9.32813 38.7188C9.80794 37.779 10.2142 36.8102 10.5469 35.8125C10.0528 34.7456 9.56841 33.6675 9.09375 32.5781C8.86832 31.9644 8.68082 31.3393 8.53125 30.7031C8.42187 30.4688 8.25 30.2969 8.01563 30.1875C7.16818 29.8686 6.32443 29.5405 5.48438 29.2031C5.39126 28.77 5.36001 28.3326 5.39063 27.8906ZM18.8906 27.8906C22.2344 27.8906 25.5781 27.8906 28.9219 27.8906C28.5302 29.8923 27.374 31.2517 25.4531 31.9688C22.4013 32.6069 20.2606 31.4976 19.0313 28.6406C18.9542 28.3953 18.9073 28.1453 18.8906 27.8906Z" fill="url(#paint1_linear_25_473)"/>
<path opacity="0.932" fill-rule="evenodd" clip-rule="evenodd" d="M17.7656 26.2969C21.8595 26.2812 25.9533 26.2969 30.0469 26.3438C30.2866 26.408 30.4585 26.5486 30.5625 26.7656C30.511 30.6328 28.5891 32.9609 24.7969 33.75C21.6206 34.0139 19.2924 32.7483 17.8125 29.9531C17.3463 28.9391 17.1588 27.8767 17.25 26.7656C17.3818 26.5553 17.5536 26.3991 17.7656 26.2969ZM18.8906 27.8906C18.9073 28.1453 18.9542 28.3953 19.0312 28.6406C20.2606 31.4976 22.4013 32.6069 25.4531 31.9688C27.374 31.2517 28.5302 29.8923 28.9219 27.8906C25.5781 27.8906 22.2344 27.8906 18.8906 27.8906Z" fill="url(#paint2_linear_25_473)"/>
<defs>
<linearGradient id="paint0_linear_25_473" x1="24.3828" y1="0.697266" x2="24.3828" y2="24.3374" gradientUnits="userSpaceOnUse">
<stop stop-color="#55B4D4"/>
<stop offset="1" stop-color="#5758E0"/>
</linearGradient>
<linearGradient id="paint1_linear_25_473" x1="23.9063" y1="26.291" x2="23.9063" y2="47.2032" gradientUnits="userSpaceOnUse">
<stop stop-color="#55B4D4"/>
<stop offset="1" stop-color="#5758E0"/>
</linearGradient>
<linearGradient id="paint2_linear_25_473" x1="23.895" y1="26.291" x2="23.895" y2="33.7842" gradientUnits="userSpaceOnUse">
<stop stop-color="#55B4D4"/>
<stop offset="1" stop-color="#5758E0"/>
</linearGradient>
</defs>
</svg>
