<svg width="32" height="32" viewBox="0 0 32 32" fill="none" xmlns="http://www.w3.org/2000/svg">
<path opacity="0.964" fill-rule="evenodd" clip-rule="evenodd" d="M30.0313 14.6563C30.3247 19.9744 28.3663 24.2348 24.1563 27.4375C19.7983 30.2989 15.1941 30.7573 10.3437 28.8125C5.50656 26.4732 2.74619 22.6294 2.0625 17.2813C1.7385 11.9617 3.68644 7.70132 7.90625 4.50001C12.2644 1.63852 16.8686 1.18019 21.7188 3.12501C26.5569 5.47422 29.3277 9.31801 30.0313 14.6563ZM28.0313 15.7813C27.8589 20.8899 25.5047 24.5879 20.9687 26.875C17.8482 28.1791 14.7024 28.2416 11.5312 27.0625C7.69581 25.3726 5.28956 22.4872 4.3125 18.4063C3.48775 13.3161 5.12313 9.22232 9.21875 6.12501C12.5868 3.9201 16.191 3.44093 20.0312 4.68751C24.0602 6.23725 26.6123 9.10182 27.6875 13.2813C27.8646 14.1156 27.9792 14.9489 28.0313 15.7813Z" fill="#999999"/>
<path opacity="0.976" fill-rule="evenodd" clip-rule="evenodd" d="M24.0938 15.8438C24.0791 16.1106 24.0062 16.3606 23.875 16.5938C21.4687 19 19.0625 21.4062 16.6562 23.8125C15.7632 24.1993 15.2007 23.9181 14.9687 22.9688C15.0034 22.7466 15.0763 22.5383 15.1875 22.3438C16.9687 20.5625 18.75 18.7812 20.5312 17C16.5729 16.9792 12.6146 16.9583 8.65625 16.9375C8.21956 16.7621 8.01125 16.4392 8.03125 15.9687C8.01125 15.4983 8.21956 15.1754 8.65625 15C12.6146 14.9792 16.5729 14.9583 20.5312 14.9375C18.75 13.1562 16.9688 11.375 15.1875 9.59375C14.8003 8.70144 15.0816 8.13894 16.0312 7.90625C16.2517 7.94413 16.4601 8.017 16.6562 8.125C19.0625 10.5312 21.4688 12.9375 23.875 15.3438C23.9674 15.5099 24.0403 15.6766 24.0938 15.8438Z" fill="#999999"/>
</svg>
