<svg width="30" height="30" viewBox="0 0 30 30" fill="#fff" xmlns="http://www.w3.org/2000/svg">
<g clip-path="url(#clip0_44_64)">
<path opacity="0.987" fill-rule="evenodd" clip-rule="evenodd" d="M13.623 -0.0292969C14.5215 -0.0292969 15.4199 -0.0292969 16.3184 -0.0292969C21.5709 0.608666 25.526 3.20633 28.1836 7.76367C29.1618 9.60768 29.7575 11.5608 29.9707 13.623C29.9707 14.5215 29.9707 15.4199 29.9707 16.3184C29.3327 21.5709 26.7351 25.526 22.1777 28.1836C20.3337 29.1618 18.3806 29.7575 16.3184 29.9707C15.4199 29.9707 14.5215 29.9707 13.623 29.9707C8.37047 29.3327 4.4154 26.7351 1.75781 22.1777C0.779607 20.3337 0.183902 18.3806 -0.0292969 16.3184C-0.0292969 15.4199 -0.0292969 14.5215 -0.0292969 13.623C0.608643 8.37053 3.2063 4.41547 7.76367 1.75781C9.60768 0.779607 11.5608 0.183902 13.623 -0.0292969ZM6.24023 8.99414C12.0507 8.92582 17.871 8.91609 23.7012 8.96484C21.0449 11.6211 18.3887 14.2774 15.7324 16.9336C15.2246 16.9727 14.7168 16.9727 14.209 16.9336C11.5605 14.2753 8.9042 11.6288 6.24023 8.99414ZM5.47852 9.75586C7.3132 11.5515 9.12961 13.3679 10.9277 15.2051C9.13166 17.0304 7.32504 18.8469 5.50781 20.6543C5.47852 17.0215 5.46875 13.3887 5.47852 9.75586ZM24.4043 9.75586C24.4726 13.3788 24.4823 17.0116 24.4336 20.6543C22.6164 18.8469 20.8097 17.0304 19.0137 15.2051C20.8118 13.3874 22.6086 11.571 24.4043 9.75586ZM11.6895 15.9668C12.3612 16.6093 13.0253 17.2635 13.6816 17.9297C14.1054 17.9961 14.5351 18.0254 14.9707 18.0176C15.4063 18.0254 15.836 17.9961 16.2598 17.9297C16.9141 17.2754 17.5683 16.6211 18.2227 15.9668C19.8926 17.6367 21.5625 19.3066 23.2324 20.9766C17.7246 21.0156 12.2168 21.0156 6.70898 20.9766C8.38096 19.3144 10.0411 17.6445 11.6895 15.9668Z" fill="white"/>
</g>
<defs>
<clipPath id="clip0_44_64">
<rect width="30" height="30" fill="white"/>
</clipPath>
</defs>
</svg>
