<svg width="48" height="48" viewBox="0 0 48 48" fill="none" xmlns="http://www.w3.org/2000/svg">
<g clip-path="url(#clip0_29_607)">
<path opacity="0.982" fill-rule="evenodd" clip-rule="evenodd" d="M2.57812 -0.046875C16.8281 -0.046875 31.0781 -0.046875 45.3281 -0.046875C46.6718 0.359375 47.5469 1.23438 47.9531 2.57812C47.9531 16.8281 47.9531 31.0781 47.9531 45.3281C47.5469 46.6718 46.6718 47.5469 45.3281 47.9531C31.0781 47.9531 16.8281 47.9531 2.57812 47.9531C1.23438 47.5469 0.359375 46.6718 -0.046875 45.3281C-0.046875 31.0781 -0.046875 16.8281 -0.046875 2.57812C0.359375 1.23438 1.23438 0.359375 2.57812 -0.046875ZM3.42188 1.45312C17.1094 1.4375 30.7969 1.45312 44.4844 1.5C45.3872 1.55912 45.9966 2.01225 46.3125 2.85938C46.4463 4.76186 46.4932 6.66811 46.4531 8.57812C31.4531 8.57812 16.4531 8.57812 1.45312 8.57812C1.41312 6.66811 1.46 4.76186 1.59375 2.85938C1.92455 2.01131 2.53392 1.54256 3.42188 1.45312ZM1.45312 10.1719C16.4531 10.1719 31.4531 10.1719 46.4531 10.1719C46.4688 21.6094 46.4531 33.0469 46.4062 44.4844C46.2656 45.625 45.625 46.2656 44.4844 46.4062C30.7969 46.4688 17.1094 46.4688 3.42188 46.4062C2.28125 46.2656 1.64062 45.625 1.5 44.4844C1.45312 33.0469 1.4375 21.6094 1.45312 10.1719ZM36.9844 18.1406C38.5441 18.0909 39.2472 18.8409 39.0938 20.3906C38.5049 21.5392 37.8487 22.6329 37.125 23.6719C36.1345 23.1376 35.1502 22.5907 34.1719 22.0312C34.8007 20.9142 35.4412 19.8049 36.0938 18.7031C36.3603 18.4535 36.6571 18.266 36.9844 18.1406ZM33.3281 23.3906C34.2318 23.9051 35.1381 24.4207 36.0469 24.9375C36.162 25.0105 36.2557 25.1043 36.3281 25.2188C34.3765 28.6085 32.4234 31.999 30.4688 35.3906C29.4577 34.8308 28.4733 34.2371 27.5156 33.6094C29.479 30.2133 31.4166 26.807 33.3281 23.3906ZM27.0469 35.2969C27.7939 35.6704 28.5127 36.0923 29.2031 36.5625C28.4688 37.0469 27.7343 37.5312 27 38.0156C26.9726 37.1092 26.9883 36.203 27.0469 35.2969Z" fill="url(#paint0_linear_29_607)"/>
<path opacity="0.924" fill-rule="evenodd" clip-rule="evenodd" d="M5.39065 4.26562C6.95346 4.25 8.51597 4.26563 10.0782 4.3125C10.5781 4.78125 10.5781 5.25 10.0782 5.71875C9.9844 5.74999 9.89065 5.78125 9.7969 5.8125C8.4219 5.875 7.0469 5.875 5.6719 5.8125C5.14114 5.64186 4.93802 5.28248 5.06253 4.73437C5.15602 4.56346 5.26539 4.40721 5.39065 4.26562Z" fill="url(#paint1_linear_29_607)"/>
<path opacity="0.926" fill-rule="evenodd" clip-rule="evenodd" d="M12.7968 4.26562C14.4534 4.25 16.1096 4.26563 17.7656 4.3125C18.2266 4.7352 18.2579 5.18832 17.8593 5.67187C17.7379 5.72796 17.613 5.77484 17.4843 5.8125C16.0156 5.875 14.5469 5.875 13.0781 5.8125C12.4721 5.64787 12.269 5.25724 12.4687 4.64062C12.5334 4.46716 12.6427 4.34216 12.7968 4.26562Z" fill="url(#paint2_linear_29_607)"/>
<path opacity="0.937" fill-rule="evenodd" clip-rule="evenodd" d="M20.4843 4.26563C27.3282 4.25 34.1719 4.26563 41.0156 4.3125C41.4876 4.595 41.597 4.98562 41.3437 5.48438C41.2201 5.6707 41.0482 5.78007 40.8281 5.8125C34.1406 5.875 27.4531 5.875 20.7656 5.8125C20.1596 5.64788 19.9565 5.25725 20.1562 4.64063C20.2852 4.52765 20.3945 4.40265 20.4843 4.26563Z" fill="url(#paint3_linear_29_607)"/>
<path opacity="0.992" fill-rule="evenodd" clip-rule="evenodd" d="M7.54685 16.1719C13.8282 16.1562 20.1094 16.1719 26.3906 16.2188C26.6733 16.3621 26.7983 16.5965 26.7656 16.9219C26.7983 17.2473 26.6733 17.4817 26.3906 17.625C20.1093 17.6875 13.8281 17.6875 7.54685 17.625C7.2641 17.4817 7.13909 17.2473 7.17185 16.9219C7.15145 16.5876 7.27645 16.3376 7.54685 16.1719Z" fill="url(#paint4_linear_29_607)"/>
<path opacity="0.934" fill-rule="evenodd" clip-rule="evenodd" d="M36.7031 16.5469C39.575 16.4343 40.9031 17.8093 40.6875 20.6719C40.2622 21.6788 39.7621 22.6475 39.1875 23.5781C36.6251 28.0156 34.0625 32.4531 31.5 36.8906C31.3906 37 31.2813 37.1093 31.1719 37.2187C29.5285 38.3058 27.8722 39.3683 26.2031 40.4062C20.0469 40.4688 13.8907 40.4688 7.7344 40.4062C7.4783 40.3689 7.30643 40.2283 7.21877 39.9844C7.08347 39.5426 7.19285 39.1833 7.5469 38.9062C13.4531 38.8594 19.3593 38.8437 25.2656 38.8594C25.3549 37.1397 25.4642 35.421 25.5938 33.7031C28.5701 28.469 31.5701 23.2503 34.5938 18.0469C35.1175 17.2787 35.8206 16.7787 36.7031 16.5469ZM36.9844 18.1406C36.6571 18.266 36.3603 18.4535 36.0938 18.7031C35.4413 19.8049 34.8007 20.9142 34.1719 22.0312C35.1502 22.5906 36.1346 23.1376 37.125 23.6719C37.8487 22.6329 38.5049 21.5392 39.0938 20.3906C39.2472 18.8409 38.5441 18.0909 36.9844 18.1406ZM33.3281 23.3906C31.4166 26.807 29.4791 30.2133 27.5156 33.6094C28.4733 34.2371 29.4577 34.8308 30.4688 35.3906C32.4235 31.999 34.3766 28.6085 36.3281 25.2187C36.2558 25.1043 36.162 25.0105 36.0469 24.9375C35.1381 24.4207 34.2318 23.9051 33.3281 23.3906ZM27.0469 35.2969C26.9883 36.203 26.9726 37.1091 27 38.0156C27.7344 37.5312 28.4688 37.0469 29.2031 36.5625C28.5127 36.0922 27.7939 35.6704 27.0469 35.2969Z" fill="url(#paint5_linear_29_607)"/>
<path opacity="0.937" fill-rule="evenodd" clip-rule="evenodd" d="M7.7344 23.6719C13.8908 23.6562 20.047 23.6719 26.2032 23.7188C26.6081 23.824 26.7956 24.0896 26.7657 24.5156C26.7864 24.8242 26.6613 25.0585 26.3907 25.2188C20.1094 25.2813 13.8282 25.2813 7.5469 25.2188C7.14489 24.8652 7.06677 24.4434 7.31253 23.9531C7.44459 23.833 7.58522 23.7393 7.7344 23.6719Z" fill="url(#paint6_linear_29_607)"/>
<path opacity="0.935" fill-rule="evenodd" clip-rule="evenodd" d="M7.64062 31.2656C13.2345 31.25 18.8282 31.2656 24.4219 31.3125C24.9008 31.6281 25.0102 32.05 24.75 32.5781C24.6653 32.6907 24.556 32.7689 24.4219 32.8125C18.8281 32.875 13.2344 32.875 7.64062 32.8125C7.29021 32.6814 7.13396 32.4313 7.17187 32.0625C7.15389 31.6908 7.31014 31.4251 7.64062 31.2656Z" fill="url(#paint7_linear_29_607)"/>
</g>
<defs>
<linearGradient id="paint0_linear_29_607" x1="23.9531" y1="-0.046875" x2="23.9531" y2="47.9531" gradientUnits="userSpaceOnUse">
<stop stop-color="#55B4D4"/>
<stop offset="1" stop-color="#5758E0"/>
</linearGradient>
<linearGradient id="paint1_linear_29_607" x1="7.74008" y1="4.25977" x2="7.74008" y2="5.85937" gradientUnits="userSpaceOnUse">
<stop stop-color="#55B4D4"/>
<stop offset="1" stop-color="#5758E0"/>
</linearGradient>
<linearGradient id="paint2_linear_29_607" x1="15.2655" y1="4.25977" x2="15.2655" y2="5.85937" gradientUnits="userSpaceOnUse">
<stop stop-color="#55B4D4"/>
<stop offset="1" stop-color="#5758E0"/>
</linearGradient>
<linearGradient id="paint3_linear_29_607" x1="30.7792" y1="4.25977" x2="30.7792" y2="5.85938" gradientUnits="userSpaceOnUse">
<stop stop-color="#55B4D4"/>
<stop offset="1" stop-color="#5758E0"/>
</linearGradient>
<linearGradient id="paint4_linear_29_607" x1="16.9687" y1="16.166" x2="16.9687" y2="17.6719" gradientUnits="userSpaceOnUse">
<stop stop-color="#55B4D4"/>
<stop offset="1" stop-color="#5758E0"/>
</linearGradient>
<linearGradient id="paint5_linear_29_607" x1="23.9364" y1="16.5405" x2="23.9364" y2="40.4531" gradientUnits="userSpaceOnUse">
<stop stop-color="#55B4D4"/>
<stop offset="1" stop-color="#5758E0"/>
</linearGradient>
<linearGradient id="paint6_linear_29_607" x1="16.9707" y1="23.666" x2="16.9707" y2="25.2657" gradientUnits="userSpaceOnUse">
<stop stop-color="#55B4D4"/>
<stop offset="1" stop-color="#5758E0"/>
</linearGradient>
<linearGradient id="paint7_linear_29_607" x1="16.0269" y1="31.2598" x2="16.0269" y2="32.8594" gradientUnits="userSpaceOnUse">
<stop stop-color="#55B4D4"/>
<stop offset="1" stop-color="#5758E0"/>
</linearGradient>
<clipPath id="clip0_29_607">
<rect width="48" height="48" fill="white"/>
</clipPath>
</defs>
</svg>
