<svg width="48" height="48" viewBox="0 0 48 48" fill="none" xmlns="http://www.w3.org/2000/svg">
<g clip-path="url(#clip0_25_584)">
<path opacity="0.946" fill-rule="evenodd" clip-rule="evenodd" d="M3.14062 -0.046814C3.42188 -0.046814 3.70312 -0.046814 3.98438 -0.046814C6.28088 1.35389 8.59337 2.74181 10.9219 4.11693C11.0119 4.24974 11.09 4.39009 11.1562 4.53798C11.1875 5.41127 11.2188 6.28457 11.25 7.15786C15.0625 10.963 18.875 14.768 22.6875 18.5731C24.9687 16.2963 27.25 14.0194 29.5312 11.7427C28.6462 7.35058 30.0368 3.87299 33.7031 1.30991C34.8516 0.64227 36.0703 0.190027 37.3594 -0.046814C38.2343 -0.046814 39.1094 -0.046814 39.9844 -0.046814C40.6867 0.0669119 41.3743 0.269641 42.0469 0.561373C42.3732 0.942613 42.4513 1.36367 42.2812 1.82453C41.0028 3.19416 39.6903 4.5353 38.3438 5.84792C38.2812 6.50289 38.2812 7.15786 38.3438 7.81284C39.0186 8.45506 39.6592 9.12563 40.2656 9.82453C40.8907 9.88694 41.5156 9.88694 42.1406 9.82453C43.5183 8.41829 44.9245 7.04597 46.3594 5.70757C46.9167 5.57021 47.3386 5.74174 47.625 6.22219C47.7219 6.5808 47.8312 6.92388 47.9531 7.25143C47.9531 8.62375 47.9531 9.99604 47.9531 11.3684C46.6292 15.9617 43.5667 18.4256 38.7656 18.7602C37.9162 18.6941 37.0724 18.6161 36.2344 18.5263C34.4219 20.3352 32.6093 22.1443 30.7969 23.9532C31.247 24.3086 31.6688 24.6985 32.0625 25.1228C32.3448 24.7466 32.7041 24.4816 33.1406 24.3275C34.0447 24.3361 34.4041 24.7884 34.2188 25.6842C34.0663 25.9301 33.8788 26.1484 33.6562 26.3392C33.5937 26.4016 33.5937 26.4639 33.6562 26.5263C37.7688 30.3502 41.9093 34.1397 46.0781 37.8947C46.9161 38.6818 47.5411 39.6019 47.9531 40.6549C47.9531 41.7466 47.9531 42.8381 47.9531 43.9298C47.1638 46.0584 45.6638 47.3995 43.4531 47.9532C42.7657 47.9532 42.0781 47.9532 41.3906 47.9532C40.4374 47.7116 39.5624 47.2905 38.7656 46.69C34.653 42.3049 30.5749 37.8916 26.5312 33.4503C26.2934 33.719 26.0278 33.9529 25.7344 34.152C24.9401 34.3261 24.4714 34.0142 24.3281 33.2163C24.468 32.7206 24.7493 32.3151 25.1719 32C24.8157 31.5508 24.4251 31.1297 24 30.7368C22.1875 32.5457 20.375 34.3548 18.5625 36.1637C19.4132 40.5418 18.0225 44.0194 14.3906 46.5965C13.2428 47.2639 12.0241 47.7162 10.7344 47.9532C9.85941 47.9532 8.98437 47.9532 8.10938 47.9532C7.40695 47.8395 6.71946 47.6367 6.04688 47.345C5.72058 46.9637 5.64245 46.5427 5.8125 46.0818C7.15625 44.7407 8.5 43.3995 9.84375 42.0584C9.90628 41.4035 9.90628 40.7485 9.84375 40.0935C9.17187 39.4229 8.5 38.7524 7.82812 38.0818C7.20312 38.0194 6.57813 38.0194 5.95312 38.0818C4.60938 39.4229 3.26562 40.7641 1.92188 42.1052C1.41712 42.3318 0.964003 42.2538 0.5625 41.8713C0.283302 41.0994 0.0801775 40.3196 -0.046875 39.5321C-0.046875 38.9396 -0.046875 38.3469 -0.046875 37.7544C0.388867 34.1265 2.26387 31.5222 5.57812 29.9415C7.61657 29.1164 9.71034 28.9293 11.8594 29.3801C14.1094 27.1345 16.3594 24.8889 18.6094 22.6432C14.7942 18.8668 11.013 15.0617 7.26562 11.228C6.42188 11.1969 5.57812 11.1656 4.73438 11.1345C4.54509 11.0924 4.37322 11.0144 4.21875 10.9006C2.7696 8.53671 1.34773 6.16634 -0.046875 3.78944C-0.046875 3.60231 -0.046875 3.41517 -0.046875 3.22804C0.9501 2.07699 2.01261 0.985383 3.14062 -0.046814ZM37.6406 1.9181C38.204 1.90255 38.7665 1.91815 39.3281 1.96488C38.3438 3.00972 37.3594 4.05455 36.375 5.09938C36.3125 6.25338 36.3125 7.40738 36.375 8.56137C37.2968 9.54383 38.2188 10.5263 39.1406 11.5087C39.307 11.6434 39.4945 11.737 39.7031 11.7894C40.7032 11.8519 41.7031 11.8519 42.7031 11.7894C42.8668 11.7454 43.0231 11.683 43.1719 11.6023C44.1562 10.6199 45.1406 9.6374 46.125 8.65494C46.214 12.5176 44.4483 15.1218 40.8281 16.4678C39.2052 16.9258 37.5959 16.879 36 16.3275C35.823 16.3552 35.6511 16.4019 35.4844 16.4678C29.1875 22.7524 22.8907 29.037 16.5938 35.3216C16.4994 35.5119 16.4526 35.7146 16.4531 35.9298C17.5731 40.2426 16.1668 43.4239 12.2344 45.4737C11.1182 45.9245 9.96187 46.0803 8.76562 45.9415C9.81534 44.9251 10.8309 43.8803 11.8125 42.807C11.875 41.653 11.875 40.499 11.8125 39.345C10.8935 38.3341 9.94031 37.3516 8.95312 36.3976C8.78676 36.263 8.59926 36.1694 8.39062 36.1169C7.39062 36.0545 6.39063 36.0545 5.39062 36.1169C5.2269 36.161 5.07066 36.2234 4.92188 36.3041C3.9375 37.2865 2.95312 38.269 1.96875 39.2514C1.87833 35.3927 3.64395 32.7885 7.26562 31.4386C8.88754 30.9805 10.4969 31.0272 12.0938 31.5789C12.2708 31.5512 12.4427 31.5044 12.6094 31.4386C18.9063 25.1539 25.2031 18.8694 31.5 12.5848C31.5943 12.3944 31.6412 12.1918 31.6406 11.9766C30.5207 7.66382 31.9269 4.48253 35.8594 2.43272C36.4526 2.21498 37.0464 2.04344 37.6406 1.9181ZM3.70312 2.10523C5.51302 3.1958 7.32552 4.28742 9.14062 5.38009C9.2186 6.15795 9.26547 6.93768 9.28125 7.71927C9.33385 7.92749 9.42759 8.11463 9.5625 8.28067C13.4375 12.1481 17.3125 16.0156 21.1875 19.883C21.25 19.9454 21.25 20.0077 21.1875 20.0701C20.8282 20.4288 20.4687 20.7875 20.1094 21.1462C20.0468 21.2086 19.9844 21.2086 19.9219 21.1462C16.0156 17.1228 12.0469 13.1618 8.01562 9.26313C7.14896 9.24621 6.28959 9.19943 5.4375 9.12278C4.37804 7.30159 3.29992 5.49262 2.20312 3.69588C2.70516 3.16376 3.20515 2.63354 3.70312 2.10523ZM29.2969 25.4035C29.5878 25.5834 29.869 25.7862 30.1406 26.0117C30.3707 26.1745 30.5113 26.3772 30.5625 26.6199C29.2487 27.9467 27.9205 29.2567 26.5781 30.5497C26.2358 30.1612 25.8765 29.7869 25.5 29.4269C25.4375 29.3645 25.4375 29.3021 25.5 29.2397C26.7846 27.9733 28.0502 26.6946 29.2969 25.4035ZM32.0156 27.9298C32.1489 27.9494 32.2739 27.9961 32.3906 28.0701C36.5187 31.9097 40.675 35.7148 44.8594 39.4854C46.6564 41.4801 46.5938 43.4139 44.6719 45.2865C42.8113 46.3899 41.1082 46.1871 39.5625 44.6783C35.7533 40.4709 31.9095 36.2916 28.0312 32.1403C27.9687 32.0779 27.9687 32.0156 28.0312 31.9532C29.3783 30.6244 30.7064 29.2832 32.0156 27.9298Z" fill="url(#paint0_linear_25_584)"/>
<path opacity="0.891" fill-rule="evenodd" clip-rule="evenodd" d="M32.2969 14.4561C33.4114 14.5003 33.7707 15.0304 33.375 16.0468C32.7404 16.5856 32.1779 16.5232 31.6875 15.8596C31.4874 15.2 31.6905 14.7321 32.2969 14.4561Z" fill="url(#paint1_linear_25_584)"/>
<path opacity="0.94" fill-rule="evenodd" clip-rule="evenodd" d="M29.7656 17.076C30.8305 17.2369 31.1274 17.7983 30.6563 18.7603C26.7031 22.7057 22.75 26.6511 18.7969 30.5965C18.1465 30.945 17.6309 30.8046 17.25 30.1755C17.1525 29.7981 17.2149 29.4551 17.4375 29.1462C21.3907 25.2008 25.3437 21.2554 29.2969 17.31C29.467 17.2391 29.6232 17.1612 29.7656 17.076Z" fill="url(#paint2_linear_25_584)"/>
<path opacity="0.891" fill-rule="evenodd" clip-rule="evenodd" d="M15.2344 31.4854C16.2217 31.4572 16.6124 31.9251 16.4062 32.8889C15.9994 33.4844 15.4837 33.5936 14.8594 33.2164C14.4804 32.7857 14.4336 32.3335 14.7187 31.8597C14.8886 31.7215 15.0605 31.5967 15.2344 31.4854Z" fill="url(#paint3_linear_25_584)"/>
<path opacity="0.939" fill-rule="evenodd" clip-rule="evenodd" d="M33.1406 32.2339C33.4902 32.241 33.8027 32.3502 34.0781 32.5614C36.9063 35.384 39.7343 38.2066 42.5625 41.0292C42.9746 41.8885 42.7246 42.4188 41.8125 42.6199C41.5415 42.6423 41.3071 42.5644 41.1094 42.3859C38.25 39.5321 35.3906 36.6783 32.5312 33.8245C32.1774 33.0862 32.3806 32.5559 33.1406 32.2339Z" fill="url(#paint4_linear_25_584)"/>
</g>
<defs>
<linearGradient id="paint0_linear_25_584" x1="23.9531" y1="-0.046814" x2="23.9531" y2="47.9532" gradientUnits="userSpaceOnUse">
<stop stop-color="#55B4D4"/>
<stop offset="1" stop-color="#5758E0"/>
</linearGradient>
<linearGradient id="paint1_linear_25_584" x1="32.5718" y1="14.4561" x2="32.5718" y2="16.409" gradientUnits="userSpaceOnUse">
<stop stop-color="#55B4D4"/>
<stop offset="1" stop-color="#5758E0"/>
</linearGradient>
<linearGradient id="paint2_linear_25_584" x1="24.0392" y1="17.076" x2="24.0392" y2="30.7828" gradientUnits="userSpaceOnUse">
<stop stop-color="#55B4D4"/>
<stop offset="1" stop-color="#5758E0"/>
</linearGradient>
<linearGradient id="paint3_linear_25_584" x1="15.4974" y1="31.4842" x2="15.4974" y2="33.4358" gradientUnits="userSpaceOnUse">
<stop stop-color="#55B4D4"/>
<stop offset="1" stop-color="#5758E0"/>
</linearGradient>
<linearGradient id="paint4_linear_25_584" x1="37.5588" y1="32.2339" x2="37.5588" y2="42.6236" gradientUnits="userSpaceOnUse">
<stop stop-color="#55B4D4"/>
<stop offset="1" stop-color="#5758E0"/>
</linearGradient>
<clipPath id="clip0_25_584">
<rect width="48" height="48" fill="white"/>
</clipPath>
</defs>
</svg>
